<svg width="170" height="39" viewBox="0 0 170 39" fill="none" xmlns="http://www.w3.org/2000/svg">
<path d="M6.99555 26.9985C6.99555 27.953 6.66827 28.7653 6.01372 29.4151C5.35916 30.065 4.5512 30.3899 3.57959 30.3899C3.10913 30.3899 2.65913 30.2985 2.22958 30.1157C1.80002 29.933 1.42161 29.6994 1.08411 29.3948C0.746601 29.1004 0.490916 28.7348 0.296595 28.3287C0.102274 27.9124 0 27.4656 0 26.9985V11.9407C0 10.3466 0.31705 8.83367 0.951149 7.42232C1.58525 6.00081 2.44435 4.77221 3.53868 3.71624C4.64324 2.66026 5.91144 1.8175 7.36374 1.19813C8.81603 0.578758 10.3399 0.274148 11.9558 0.274148C13.6331 0.274148 15.1979 0.588911 16.6707 1.22859C18.1434 1.86827 19.4321 2.74148 20.5469 3.84823C21.6617 2.74148 22.9708 1.86827 24.464 1.22859C25.9572 0.588911 27.5424 0.274148 29.2095 0.274148C30.8356 0.274148 32.3698 0.568604 33.7811 1.16767C35.2027 1.76673 36.4403 2.58918 37.5141 3.62485C38.588 4.67068 39.4471 5.88912 40.0914 7.27001C40.7358 8.65091 41.0937 10.1333 41.1551 11.7173C41.1551 11.7579 41.1551 11.8087 41.1756 11.8595C41.1858 11.9102 41.196 11.961 41.196 12.0016V26.9985C41.196 27.4656 41.104 27.9124 40.9199 28.3287C40.7358 28.745 40.4903 29.1004 40.1835 29.3948C39.8767 29.6893 39.5085 29.933 39.1096 30.1157C38.7005 30.2985 38.2607 30.3899 37.7903 30.3899C37.2994 30.3899 36.8391 30.2985 36.4096 30.1157C35.98 29.933 35.6016 29.6994 35.2846 29.3948C34.9675 29.1004 34.7016 28.7348 34.5073 28.3287C34.313 27.9124 34.2209 27.4758 34.2209 26.9985V12.1031V12.0118V11.9204C34.18 11.2401 34.0266 10.6106 33.7505 10.0318C33.4845 9.45305 33.1164 8.96567 32.6561 8.54937C32.1959 8.13307 31.6641 7.80816 31.0606 7.57462C30.4572 7.34109 29.8231 7.21924 29.1583 7.21924C28.4731 7.21924 27.8186 7.35124 27.1947 7.60508C26.5708 7.85892 26.0288 8.20415 25.5685 8.64075C25.1083 9.07736 24.7401 9.5952 24.4742 10.1943C24.2083 10.7933 24.0753 11.4229 24.0753 12.0828V26.9985C24.0753 27.953 23.748 28.7653 23.0935 29.4151C22.4389 30.065 21.631 30.3899 20.6594 30.3899C20.1889 30.3899 19.7389 30.2985 19.3094 30.1157C18.8798 29.933 18.5014 29.6994 18.1639 29.3948C17.8264 29.1004 17.5707 28.7348 17.3764 28.3287C17.182 27.9124 17.09 27.4758 17.09 26.9985V12.0422V11.9508C17.0695 11.2705 16.9264 10.6309 16.6502 10.0521C16.3843 9.4632 16.0264 8.96567 15.5763 8.54937C15.1263 8.13307 14.5945 7.80816 14.0013 7.57462C13.3979 7.34109 12.7536 7.21924 12.0683 7.21924C11.3831 7.21924 10.7286 7.34109 10.1251 7.58477C9.51149 7.82846 8.97967 8.17369 8.51943 8.61029C8.0592 9.0469 7.69101 9.55458 7.4251 10.1333C7.15919 10.7121 7.02623 11.3315 7.02623 11.9915V12.0219V26.9985H6.99555ZM44.9699 19.4341C44.9699 17.8806 45.2665 16.4184 45.8699 15.0579C46.4734 13.6973 47.2813 12.5093 48.3143 11.4838C49.3473 10.4583 50.5439 9.65612 51.9143 9.06721C53.2848 8.4783 54.7473 8.18384 56.2917 8.18384C57.8565 8.18384 59.3292 8.4783 60.6997 9.06721C62.0702 9.65612 63.2668 10.4583 64.2895 11.4838C65.3122 12.5093 66.1202 13.6973 66.7134 15.0579C67.3066 16.4184 67.6032 17.8704 67.6032 19.4341C67.6032 20.9774 67.3066 22.4294 66.7134 23.79C66.1202 25.1607 65.3122 26.3487 64.2895 27.3742C63.2668 28.3998 62.0702 29.2019 60.6997 29.7908C59.3292 30.3797 57.8667 30.6742 56.2917 30.6742C54.7371 30.6742 53.2848 30.3797 51.9143 29.7908C50.5439 29.2019 49.3473 28.3998 48.3143 27.3742C47.2813 26.3487 46.4734 25.1607 45.8699 23.79C45.2665 22.4193 44.9699 20.9673 44.9699 19.4341ZM50.1245 19.4341C50.1245 20.2667 50.2882 21.0587 50.6155 21.7999C50.9427 22.5513 51.3825 23.2011 51.945 23.7595C52.5075 24.318 53.1621 24.7546 53.9087 25.0795C54.6553 25.4044 55.453 25.5669 56.3019 25.5669C57.1508 25.5669 57.9587 25.4044 58.7156 25.0795C59.4622 24.7546 60.1167 24.318 60.6792 23.7595C61.2315 23.2011 61.6713 22.5513 61.9883 21.7999C62.3054 21.0587 62.4588 20.2667 62.4588 19.4341C62.4588 18.5812 62.3054 17.7892 61.9883 17.0378C61.6713 16.2966 61.2315 15.6468 60.6792 15.0883C60.1269 14.54 59.4724 14.1034 58.7156 13.7785C57.9587 13.4536 57.161 13.2911 56.3019 13.2911C55.4632 13.2911 54.6655 13.4536 53.9189 13.7785C53.1621 14.1034 52.5075 14.54 51.945 15.0883C51.3825 15.6366 50.9427 16.2865 50.6155 17.0378C50.2882 17.779 50.1245 18.5812 50.1245 19.4341ZM92.0058 27.9124C92.0058 28.2779 91.9342 28.6028 91.8012 28.9176C91.6683 29.2222 91.4842 29.4963 91.2694 29.7197C91.0444 29.9431 90.7785 30.1259 90.4717 30.2477C90.1648 30.3696 89.8376 30.4406 89.4898 30.4406C89.1217 30.4406 88.7841 30.3797 88.4671 30.2477C88.15 30.1259 87.8739 29.9431 87.6387 29.7197C87.4034 29.4963 87.2091 29.2222 87.0659 28.9176C86.9228 28.613 86.8512 28.2779 86.8512 27.9124V19.1396C86.8512 19.0178 86.8614 18.9162 86.8716 18.8553C86.8409 18.0836 86.6773 17.3627 86.3807 16.6824C86.0841 16.0021 85.6955 15.4132 85.2148 14.9157C84.7341 14.408 84.1614 14.012 83.4966 13.7277C82.8318 13.4333 82.1159 13.2911 81.3386 13.2911C80.5306 13.2911 79.784 13.4333 79.109 13.7277C78.4238 14.0222 77.851 14.4182 77.3601 14.9462C76.8794 15.464 76.501 16.0732 76.2249 16.7738C75.9487 17.4744 75.8056 18.2258 75.8056 19.0279V27.9124C75.8056 28.2779 75.7442 28.6028 75.6112 28.9176C75.4885 29.2222 75.3044 29.4963 75.0794 29.7197C74.8544 29.9431 74.5783 30.1259 74.2715 30.2477C73.9646 30.3696 73.6374 30.4406 73.2896 30.4406C72.9419 30.4406 72.6044 30.3797 72.2976 30.2477C71.9805 30.1259 71.7044 29.9431 71.4589 29.7197C71.2135 29.4963 71.0191 29.2222 70.876 28.9176C70.7328 28.613 70.6612 28.2779 70.6612 27.9124V19.1396V19.0482V19.0279C70.6612 17.515 70.9373 16.1138 71.4794 14.7939C72.0214 13.484 72.7782 12.3367 73.7396 11.3518C74.701 10.3669 75.826 9.5952 77.1351 9.02659C78.4442 8.45799 79.8454 8.17369 81.3488 8.17369C82.8727 8.17369 84.2738 8.45799 85.5727 9.02659C86.8716 9.5952 87.9966 10.3669 88.9478 11.3518C89.8989 12.3367 90.6455 13.484 91.1876 14.7939C91.7296 16.1037 92.0058 17.515 92.0058 19.0279V19.0482V19.1396V27.9124ZM117.687 19.4036V19.5255C117.666 20.551 117.533 21.5359 117.257 22.4802C116.991 23.4346 116.603 24.318 116.102 25.1404C115.6 25.9629 115.007 26.7142 114.322 27.3945C113.637 28.0748 112.87 28.6536 112.031 29.141C111.192 29.6283 110.292 30.004 109.341 30.268C108.38 30.532 107.388 30.664 106.365 30.664C104.8 30.664 103.328 30.3696 101.957 29.7807C100.587 29.1917 99.39 28.3896 98.3672 27.3641C97.3445 26.3386 96.5365 25.1506 95.9433 23.7798C95.3501 22.4091 95.0536 20.9571 95.0536 19.4239C95.0536 17.8704 95.3501 16.4083 95.9433 15.0376C96.5365 13.6668 97.3445 12.4788 98.3672 11.4635C99.39 10.4481 100.587 9.64597 101.957 9.05705C103.328 8.46814 104.79 8.17369 106.365 8.17369C107.5 8.17369 108.595 8.33614 109.628 8.66106C110.661 8.98598 111.632 9.43274 112.532 10.0115V2.67041C112.532 2.29472 112.594 1.93935 112.727 1.62458C112.849 1.29967 113.033 1.01536 113.258 0.771677C113.483 0.52799 113.759 0.33507 114.066 0.203073C114.373 0.0710753 114.721 0 115.099 0C115.467 0 115.805 0.0710753 116.122 0.203073C116.439 0.33507 116.715 0.52799 116.94 0.771677C117.165 1.01536 117.349 1.29967 117.482 1.62458C117.615 1.9495 117.687 2.29472 117.687 2.67041V19.4036ZM112.542 19.4341C112.542 18.5812 112.379 17.7892 112.051 17.0378C111.724 16.2966 111.284 15.6468 110.722 15.0883C110.159 14.54 109.505 14.1034 108.758 13.7785C108.012 13.4536 107.214 13.2911 106.365 13.2911C105.506 13.2911 104.708 13.4536 103.972 13.7785C103.225 14.1034 102.571 14.54 102.008 15.0883C101.446 15.6366 101.006 16.2865 100.689 17.0378C100.372 17.7892 100.218 18.5812 100.218 19.4341C100.218 20.2667 100.372 21.0587 100.689 21.7999C101.006 22.5513 101.435 23.2011 101.998 23.7595C102.55 24.318 103.205 24.7546 103.962 25.0795C104.718 25.4044 105.516 25.5669 106.375 25.5669C107.234 25.5669 108.032 25.4044 108.769 25.0795C109.515 24.7546 110.17 24.318 110.732 23.7595C111.295 23.2011 111.734 22.5513 112.062 21.7999C112.379 21.0485 112.542 20.2667 112.542 19.4341ZM121.328 19.4341C121.328 17.8806 121.624 16.4184 122.228 15.0579C122.831 13.6973 123.639 12.5093 124.672 11.4838C125.705 10.4583 126.902 9.65612 128.272 9.06721C129.643 8.4783 131.105 8.18384 132.65 8.18384C134.214 8.18384 135.687 8.4783 137.058 9.06721C138.428 9.65612 139.625 10.4583 140.647 11.4838C141.67 12.5093 142.478 13.6973 143.071 15.0579C143.664 16.4184 143.961 17.8704 143.961 19.4341V27.7804C143.961 28.1459 143.889 28.481 143.756 28.7957C143.624 29.1105 143.439 29.3847 143.194 29.6182C142.959 29.8517 142.672 30.0446 142.355 30.1868C142.028 30.3289 141.691 30.4 141.322 30.4C140.709 30.4 140.187 30.2173 139.758 29.8619C139.328 29.4963 139.042 29.0496 138.898 28.4911C137.998 29.1714 137.017 29.6994 135.963 30.0954C134.91 30.4914 133.805 30.6843 132.65 30.6843C131.095 30.6843 129.643 30.3899 128.272 29.801C126.902 29.212 125.705 28.4099 124.672 27.3844C123.639 26.3589 122.831 25.1709 122.228 23.8001C121.624 22.4193 121.328 20.9673 121.328 19.4341ZM126.472 19.4341C126.472 20.2667 126.636 21.0587 126.963 21.7999C127.29 22.5513 127.73 23.2011 128.293 23.7595C128.855 24.318 129.51 24.7546 130.256 25.0795C131.003 25.4044 131.801 25.5669 132.65 25.5669C133.509 25.5669 134.306 25.4044 135.063 25.0795C135.81 24.7546 136.464 24.318 137.027 23.7595C137.579 23.2011 138.019 22.5513 138.336 21.7999C138.653 21.0587 138.806 20.2667 138.806 19.4341C138.806 18.5812 138.653 17.7892 138.336 17.0378C138.019 16.2966 137.579 15.6468 137.027 15.0883C136.475 14.54 135.82 14.1034 135.063 13.7785C134.306 13.4536 133.509 13.2911 132.65 13.2911C131.811 13.2911 131.013 13.4536 130.267 13.7785C129.51 14.1034 128.855 14.54 128.293 15.0883C127.73 15.6366 127.29 16.2865 126.963 17.0378C126.636 17.779 126.472 18.5812 126.472 19.4341ZM150.005 8.73214C150.793 8.73214 151.519 8.99613 152.163 9.53428C152.808 10.0724 153.135 10.7629 153.135 11.6056V20.1347C153.135 20.8556 153.268 21.5359 153.534 22.1654C153.8 22.7949 154.178 23.3432 154.649 23.8205C155.119 24.2977 155.682 24.6734 156.336 24.9475C156.981 25.2318 157.686 25.374 158.453 25.374C159.118 25.374 159.773 25.2521 160.427 24.9983C161.071 24.7444 161.644 24.3992 162.135 23.9626C162.626 23.526 163.025 22.998 163.322 22.3786C163.618 21.7694 163.772 21.0993 163.772 20.3784V11.7478C163.772 10.9355 164.068 10.2247 164.651 9.62566C165.234 9.02659 165.97 8.73214 166.86 8.73214C167.678 8.73214 168.415 9.00629 169.049 9.55458C169.683 10.1029 170 10.7933 170 11.6056V35.8322C170 36.6445 169.683 37.3451 169.049 37.9036C168.415 38.4722 167.689 38.7565 166.86 38.7565C166.073 38.7565 165.357 38.4722 164.723 37.9036C164.089 37.335 163.772 36.5937 163.772 35.6901V30.268C163.045 30.7046 162.217 31.0295 161.276 31.2326C160.345 31.4357 159.404 31.5372 158.453 31.5372C156.899 31.5372 155.426 31.2428 154.035 30.6437C152.644 30.0446 151.417 29.2324 150.353 28.1967C149.289 27.161 148.451 25.9223 147.837 24.5008C147.224 23.0691 146.907 21.5054 146.907 19.8098V11.7478C146.907 10.9355 147.203 10.2247 147.786 9.62566C148.379 9.02659 149.116 8.73214 150.005 8.73214Z" fill="white"/>
</svg>
